  <svg
    viewBox="0 0 1024 1024"
  >
    <path
      d="M345.832727 497.943273a274.618182 274.618182 0 1 1 332.334546 0C876.730182 566.737455 1019.345455 755.432727 1019.345455 977.454545a41.890909 41.890909 0 0 1-41.89091 41.89091H46.545455a41.890909 41.890909 0 0 1-41.89091-41.89091c0-222.021818 142.615273-410.717091 341.178182-479.511272zM512 470.109091a190.836364 190.836364 0 1 0 0-381.672727 190.836364 190.836364 0 0 0 0 381.672727z m0 83.781818a423.610182 423.610182 0 0 0-421.515636 381.672727h843.031272A423.610182 423.610182 0 0 0 512 553.890909z"
    />
  </svg>
