  <svg
    viewBox="0 0 1170 1024"
    xmlns="http://www.w3.org/2000/svg"
    width="30"
    height="30"
  >
    <path
      d="M424.862476 0c100.839619 0 198.558476 31.305143 275.163429 88.259048 68.071619 50.517333 116.053333 118.393905 137.362285 193.682285l2.730667 10.776381 12.385524 1.170286a389.217524 389.217524 0 0 1 184.807619 70.119619l11.995429 9.069714 11.654095 9.557334c33.987048 29.257143 60.757333 63.390476 79.579428 101.619809a284.769524 284.769524 0 0 1 29.744762 126.780953 286.329905 286.329905 0 0 1-96.743619 214.162285l3.657143 22.284191c4.486095 26.087619 11.215238 62.171429 17.944381 96.256a43.739429 43.739429 0 0 1-64.365714 46.518857l-40.277334-22.430476c-39.643429-21.845333-75.288381-41.008762-88.795428-48.225524a414.866286 414.866286 0 0 1-96.451048 11.264c-96.207238 0-187.050667-32.475429-255.658666-91.428572a323.388952 323.388952 0 0 1-72.167619-87.478857l-6.192762-11.702857-13.214477 1.121524-8.289523 0.487619-8.289524 0.390095-16.579048 0.24381a426.471619 426.471619 0 0 1-111.762286-13.994667l-9.557333 4.534857c-29.696 14.628571-91.428571 47.932952-150.186667 80.993524a43.739429 43.739429 0 0 1-64.365714-46.567619l22.235429-114.639238c2.145524-10.727619 4.047238-19.602286 5.510095-25.84381l-1.462857-1.365333C40.96 556.617143 0 466.261333 0 371.273143c0-51.004952 11.605333-100.400762 34.425905-146.773333a372.053333 372.053333 0 0 1 92.452571-118.00381C206.750476 37.790476 312.661333 0 424.862476 0z m380.391619 378.63619c-153.209905 0-277.552762 104.496762-277.552762 232.399239 0 127.951238 124.342857 232.399238 277.552762 232.399238 23.405714 0 46.567619-2.438095 68.998095-7.265524l16.725334-4.047238a44.373333 44.373333 0 0 1 11.800381-1.609143c9.020952 0 16.676571 2.096762 31.353905 8.923428l14.482285 7.070477c6.582857 3.267048 14.238476 7.216762 23.015619 11.800381l20.577524 10.971428-4.827428-29.403428-2.096762-15.067429a198.460952 198.460952 0 0 1-0.390096-3.803429c-1.901714-19.017143 0.877714-32.670476 15.60381-44.909714l10.971428-9.654857c46.08-42.812952 71.387429-98.011429 71.387429-155.40419 0-127.902476-124.342857-232.399238-277.601524-232.399239z m-380.342857-291.206095c-186.270476 0-337.481143 127.512381-337.481143 283.794286 0 70.41219 30.96381 137.99619 87.28381 190.366476 4.388571 3.998476 8.777143 7.94819 13.360762 11.702857 14.921143 12.385524 17.603048 26.087619 15.603809 46.226286l-1.072762 9.508571-3.023238 20.138667-7.558095 43.641905 25.258667-13.55581 34.230857-17.895619 15.213714-7.606857c27.40419-13.458286 39.058286-16.530286 54.369524-12.385524a395.02019 395.02019 0 0 0 103.765333 13.750857l11.995429-0.195047 6.826666-0.341333-1.560381-10.72762a283.843048 283.843048 0 0 1-1.365333-16.335238l-0.487619-16.481523c0-44.032 9.99619-86.698667 29.744762-126.780953a320.512 320.512 0 0 1 79.579429-101.619809c52.711619-45.29981 118.784-75.093333 190.659047-86.308572l9.557334-1.365333-2.389334-7.119238c-16.725333-45.543619-47.006476-87.088762-88.064-120.490667l-11.459047-8.923428C586.264381 112.64 507.12381 87.430095 424.862476 87.430095z m259.072 364.739048c33.645714 0 61.147429 23.552 61.147429 53.00419 0 29.403429-27.550476 52.955429-61.147429 52.955429-33.645714 0-61.147429-23.552-61.147428-52.955429 0-29.45219 27.501714-53.00419 61.147428-53.00419z m235.373714 0c33.645714 0 61.147429 23.552 61.147429 53.00419 0 29.403429-27.550476 52.955429-61.147429 52.955429-33.645714 0-61.147429-23.552-61.147428-52.955429 0-29.45219 27.501714-53.00419 61.147428-53.00419zM289.54819 183.686095c39.399619 0 71.68 27.550476 71.68 61.927619 0 34.425905-32.280381 61.976381-71.68 61.976381-39.399619 0-71.68-27.550476-71.68-61.927619 0-34.425905 32.280381-61.976381 71.68-61.976381z m279.210667 0c39.448381 0 71.68 27.550476 71.68 61.927619 0 22.332952-13.848381 42.812952-36.083809 53.833143a81.627429 81.627429 0 0 1-71.143619 0c-22.235429-11.02019-36.08381-31.50019-36.08381-53.833143 0-34.377143 32.231619-61.927619 71.68-61.927619z"
      fill="#ffffff"
      p-id="14808"
    />
  </svg>
